<svg xmlns="http://www.w3.org/2000/svg" width="8" height="23" viewBox="0 0 8 23"><g><g><path d="M7.888 11.047L.405.092C.325-.023.223-.035.138.06.053.153 0 .339 0 .543v21.91c0 .204.053.39.138.485.038.041.079.063.12.063.051 0 .102-.033.147-.097l7.483-10.955c.07-.103.112-.27.112-.451a.842.842 0 0 0-.112-.45z"/><path fill="#fff" d="M7.888 11.047L.405.092C.325-.023.223-.035.138.06.053.153 0 .339 0 .543v21.91c0 .204.053.39.138.485.038.041.079.063.12.063.051 0 .102-.033.147-.097l7.483-10.955c.07-.103.112-.27.112-.451a.842.842 0 0 0-.112-.45z"/></g></g></svg>