<svg xmlns="http://www.w3.org/2000/svg" width="8" height="23" viewBox="0 0 8 23"><g><g><path d="M.111 11.952l7.484 10.955c.08.116.182.128.267.034.085-.095.138-.28.138-.485V.546c0-.203-.053-.39-.138-.485C7.824.021 7.782 0 7.742 0c-.052 0-.103.033-.147.097L.111 11.05c-.07.102-.111.27-.111.45s.042.349.111.451z"/><path fill="#fff" d="M.111 11.952l7.484 10.955c.08.116.182.128.267.034.085-.095.138-.28.138-.485V.546c0-.203-.053-.39-.138-.485C7.824.021 7.782 0 7.742 0c-.052 0-.103.033-.147.097L.111 11.05c-.07.102-.111.27-.111.45s.042.349.111.451z"/></g></g></svg>